<svg width="33" height="34" viewBox="0 0 33 34" fill="none" xmlns="http://www.w3.org/2000/svg">
<path fill-rule="evenodd" clip-rule="evenodd" d="M15.4688 3.74C8.44525 3.74 2.75 9.3704 2.75 16.3173C2.75 23.2642 8.44525 28.8946 15.4688 28.8946C18.4854 28.9009 21.405 27.8407 23.7009 25.9053L28.4873 30.6381C28.5817 30.7383 28.6955 30.8187 28.822 30.8744C28.9485 30.9302 29.0851 30.9601 29.2235 30.9626C29.362 30.965 29.4995 30.9398 29.6279 30.8885C29.7564 30.8372 29.873 30.7608 29.9709 30.664C30.0689 30.5671 30.1461 30.4517 30.1979 30.3247C30.2498 30.1977 30.2753 30.0617 30.2728 29.9247C30.2704 29.7878 30.2401 29.6527 30.1837 29.5276C30.1273 29.4025 30.0461 29.2899 29.9447 29.1965L25.1597 24.4637C27.1194 22.1925 28.1933 19.3031 28.1875 16.3173C28.1875 9.3704 22.4923 3.74 15.4688 3.74ZM4.8125 16.3173C4.81323 13.5224 5.93626 10.8422 7.93462 8.86613C9.93297 6.89009 12.643 5.78 15.4688 5.78C16.8822 5.75754 18.286 6.0135 19.5985 6.53296C20.9109 7.05243 22.1057 7.82502 23.1133 8.80572C24.1209 9.78642 24.9211 10.9556 25.4673 12.2452C26.0135 13.5349 26.2948 14.9191 26.2948 16.3173C26.2948 17.7155 26.0135 19.0997 25.4673 20.3893C24.9211 21.6789 24.1209 22.8481 23.1133 23.8288C22.1057 24.8095 20.9109 25.5821 19.5985 26.1016C18.286 26.6211 16.8822 26.877 15.4688 26.8546C12.643 26.8546 9.93297 25.7445 7.93462 23.7684C5.93626 21.7924 4.81323 19.1122 4.8125 16.3173Z" fill="black"/>
</svg>
